<mxfile host="65bd71144e">
    <diagram id="xV-PeSpA7DipHgNXlCXi" name="Page-1">
        <mxGraphModel dx="1169" dy="1195" grid="1" gridSize="11" guides="1" tooltips="1" connect="1" arrows="1" fold="1" page="0" pageScale="1" pageWidth="850" pageHeight="1100" background="light-dark(#FFFFFF,#474747)" math="0" shadow="1">
            <root>
                <mxCell id="0"/>
                <mxCell id="1" parent="0"/>
                <mxCell id="39" style="edgeStyle=none;html=1;fontColor=light-dark(#000000,#000000);strokeColor=light-dark(#000000,#000000);" parent="1" source="24" edge="1">
                    <mxGeometry relative="1" as="geometry">
                        <mxPoint x="379.5" y="275" as="targetPoint"/>
                    </mxGeometry>
                </mxCell>
                <mxCell id="45" style="edgeStyle=none;html=1;exitX=0.75;exitY=0;exitDx=0;exitDy=0;strokeColor=light-dark(#000000,#000000);" parent="1" source="24" edge="1">
                    <mxGeometry relative="1" as="geometry">
                        <mxPoint x="572" y="-33" as="targetPoint"/>
                    </mxGeometry>
                </mxCell>
                <mxCell id="67" style="edgeStyle=none;html=1;exitX=1;exitY=0.25;exitDx=0;exitDy=0;strokeColor=light-dark(#000000,#000000);" parent="1" source="24" edge="1">
                    <mxGeometry relative="1" as="geometry">
                        <mxPoint x="715" y="264" as="targetPoint"/>
                    </mxGeometry>
                </mxCell>
                <mxCell id="76" style="edgeStyle=none;html=1;exitX=1;exitY=0;exitDx=0;exitDy=0;strokeColor=light-dark(#000000,#000000);" parent="1" source="24" edge="1">
                    <mxGeometry relative="1" as="geometry">
                        <mxPoint x="1067" y="-143" as="targetPoint"/>
                    </mxGeometry>
                </mxCell>
                <mxCell id="88" style="edgeStyle=none;html=1;" parent="1" source="24" edge="1">
                    <mxGeometry relative="1" as="geometry">
                        <mxPoint x="379.4999999999998" y="857.9999999999998" as="targetPoint"/>
                    </mxGeometry>
                </mxCell>
                <mxCell id="99" style="edgeStyle=none;html=1;exitX=1;exitY=0.5;exitDx=0;exitDy=0;fontColor=light-dark(#000000,#000000);strokeColor=light-dark(#000000,#000000);entryX=-0.003;entryY=0.337;entryDx=0;entryDy=0;entryPerimeter=0;" parent="1" source="24" target="100" edge="1">
                    <mxGeometry relative="1" as="geometry">
                        <mxPoint x="1078" y="363" as="targetPoint"/>
                    </mxGeometry>
                </mxCell>
                <mxCell id="24" value="" style="rounded=1;whiteSpace=wrap;html=1;shadow=1;glass=1;" parent="1" vertex="1">
                    <mxGeometry x="308" y="308" width="143" height="440" as="geometry"/>
                </mxCell>
                <mxCell id="25" value="user_id" style="text;html=1;align=center;verticalAlign=middle;whiteSpace=wrap;rounded=0;fillColor=#6a00ff;fontColor=#ffffff;strokeColor=#3700CC;" parent="1" vertex="1">
                    <mxGeometry x="349.5" y="319" width="60" height="30" as="geometry"/>
                </mxCell>
                <mxCell id="26" value="user_name" style="text;html=1;align=center;verticalAlign=middle;whiteSpace=wrap;rounded=0;" parent="1" vertex="1">
                    <mxGeometry x="349.5" y="363" width="60" height="30" as="geometry"/>
                </mxCell>
                <mxCell id="27" value="user_password" style="text;html=1;align=center;verticalAlign=middle;whiteSpace=wrap;rounded=0;" parent="1" vertex="1">
                    <mxGeometry x="349.5" y="451" width="60" height="30" as="geometry"/>
                </mxCell>
                <mxCell id="28" value="user_login" style="text;html=1;align=center;verticalAlign=middle;whiteSpace=wrap;rounded=0;" parent="1" vertex="1">
                    <mxGeometry x="349.5" y="408.5" width="60" height="30" as="geometry"/>
                </mxCell>
                <mxCell id="29" value="chave_pix" style="text;html=1;align=center;verticalAlign=middle;whiteSpace=wrap;rounded=0;" parent="1" vertex="1">
                    <mxGeometry x="349.5" y="495" width="60" height="30" as="geometry"/>
                </mxCell>
                <mxCell id="32" style="edgeStyle=none;html=1;fontColor=light-dark(#000000,#000000);strokeColor=light-dark(#000000,#000000);" parent="1" source="31" edge="1">
                    <mxGeometry relative="1" as="geometry">
                        <mxPoint x="176" y="99" as="targetPoint"/>
                    </mxGeometry>
                </mxCell>
                <mxCell id="34" style="edgeStyle=none;html=1;strokeColor=light-dark(#000000,#000000);" parent="1" source="31" edge="1">
                    <mxGeometry relative="1" as="geometry">
                        <mxPoint x="297" y="308" as="targetPoint"/>
                    </mxGeometry>
                </mxCell>
                <mxCell id="31" value="&lt;font style=&quot;font-size: 9px;&quot;&gt;DATA_BASE&lt;/font&gt;" style="shape=cylinder3;whiteSpace=wrap;html=1;boundedLbl=1;backgroundOutline=1;size=15;" parent="1" vertex="1">
                    <mxGeometry x="165" y="132" width="66" height="102" as="geometry"/>
                </mxCell>
                <mxCell id="33" value="MySQL" style="text;html=1;align=center;verticalAlign=middle;whiteSpace=wrap;rounded=0;fontColor=light-dark(#000000,#000000);fontSize=18;" parent="1" vertex="1">
                    <mxGeometry x="143" y="55" width="60" height="30" as="geometry"/>
                </mxCell>
                <mxCell id="35" value="user_score" style="text;html=1;align=center;verticalAlign=middle;whiteSpace=wrap;rounded=0;" parent="1" vertex="1">
                    <mxGeometry x="349.5" y="535" width="60" height="30" as="geometry"/>
                </mxCell>
                <mxCell id="36" value="user_found" style="text;html=1;align=center;verticalAlign=middle;whiteSpace=wrap;rounded=0;" parent="1" vertex="1">
                    <mxGeometry x="349.5" y="572" width="60" height="30" as="geometry"/>
                </mxCell>
                <mxCell id="37" value="user_notifications" style="text;html=1;align=center;verticalAlign=middle;whiteSpace=wrap;rounded=0;" parent="1" vertex="1">
                    <mxGeometry x="349.5" y="616" width="60" height="30" as="geometry"/>
                </mxCell>
                <mxCell id="38" value="" style="rounded=1;whiteSpace=wrap;html=1;shadow=1;glass=1;" parent="1" vertex="1">
                    <mxGeometry x="583" y="-154" width="176" height="198" as="geometry"/>
                </mxCell>
                <mxCell id="40" value="users&amp;nbsp;" style="text;html=1;align=center;verticalAlign=middle;resizable=0;points=[];autosize=1;fontColor=light-dark(#000000,#000000);fontStyle=1;fontSize=15;" parent="1" vertex="1">
                    <mxGeometry x="349" y="239" width="66" height="33" as="geometry"/>
                </mxCell>
                <mxCell id="43" value="" style="edgeStyle=none;html=1;" parent="1" source="42" target="38" edge="1">
                    <mxGeometry relative="1" as="geometry"/>
                </mxCell>
                <mxCell id="42" value="notifications" style="text;html=1;align=center;verticalAlign=middle;resizable=0;points=[];autosize=1;fontColor=light-dark(#000000,#000000);fontStyle=1;fontSize=15;" parent="1" vertex="1">
                    <mxGeometry x="611" y="-220" width="99" height="33" as="geometry"/>
                </mxCell>
                <mxCell id="44" style="edgeStyle=none;html=1;entryX=0.545;entryY=1.091;entryDx=0;entryDy=0;entryPerimeter=0;strokeColor=light-dark(#000000,#030202);" parent="1" source="38" target="42" edge="1">
                    <mxGeometry relative="1" as="geometry"/>
                </mxCell>
                <mxCell id="48" value="user_date_created" style="text;html=1;align=center;verticalAlign=middle;whiteSpace=wrap;rounded=0;" parent="1" vertex="1">
                    <mxGeometry x="349.5" y="660" width="60" height="30" as="geometry"/>
                </mxCell>
                <mxCell id="49" value="user_date" style="text;html=1;align=center;verticalAlign=middle;whiteSpace=wrap;rounded=0;" parent="1" vertex="1">
                    <mxGeometry x="352" y="693" width="60" height="30" as="geometry"/>
                </mxCell>
                <mxCell id="51" style="edgeStyle=none;html=1;strokeColor=light-dark(#000000,#000000);" parent="1" source="50" edge="1">
                    <mxGeometry relative="1" as="geometry">
                        <mxPoint x="484" y="-187" as="targetPoint"/>
                    </mxGeometry>
                </mxCell>
                <mxCell id="50" value="user_id" style="text;html=1;align=center;verticalAlign=middle;whiteSpace=wrap;rounded=0;fillColor=#6a00ff;fontColor=#ffffff;strokeColor=#3700CC;" parent="1" vertex="1">
                    <mxGeometry x="641" y="-132" width="60" height="30" as="geometry"/>
                </mxCell>
                <mxCell id="52" value="PRYMARY KEY AUTO INCREMENT" style="text;html=1;align=center;verticalAlign=middle;resizable=0;points=[];autosize=1;strokeColor=none;fillColor=none;fontColor=light-dark(#000000,#000000);" parent="1" vertex="1">
                    <mxGeometry x="350" y="-212" width="220" height="33" as="geometry"/>
                </mxCell>
                <mxCell id="53" value="title_notify" style="text;html=1;align=center;verticalAlign=middle;whiteSpace=wrap;rounded=0;" parent="1" vertex="1">
                    <mxGeometry x="641" y="-63" width="60" height="30" as="geometry"/>
                </mxCell>
                <mxCell id="54" value="subtitle_notify" style="text;html=1;align=center;verticalAlign=middle;whiteSpace=wrap;rounded=0;" parent="1" vertex="1">
                    <mxGeometry x="641" y="-33" width="60" height="30" as="geometry"/>
                </mxCell>
                <mxCell id="55" value="date_notify" style="text;html=1;align=center;verticalAlign=middle;whiteSpace=wrap;rounded=0;" parent="1" vertex="1">
                    <mxGeometry x="641" y="-11" width="60" height="44" as="geometry"/>
                </mxCell>
                <mxCell id="74" style="edgeStyle=none;html=1;exitX=0.5;exitY=0;exitDx=0;exitDy=0;strokeColor=light-dark(#000000,#000000);" parent="1" source="66" target="72" edge="1">
                    <mxGeometry relative="1" as="geometry"/>
                </mxCell>
                <mxCell id="66" value="" style="rounded=1;whiteSpace=wrap;html=1;shadow=1;glass=1;" parent="1" vertex="1">
                    <mxGeometry x="737" y="154" width="176" height="198" as="geometry"/>
                </mxCell>
                <mxCell id="68" value="title_history" style="text;html=1;align=center;verticalAlign=middle;whiteSpace=wrap;rounded=0;" parent="1" vertex="1">
                    <mxGeometry x="795" y="225.5" width="60" height="30" as="geometry"/>
                </mxCell>
                <mxCell id="69" value="subtitle_history" style="text;html=1;align=center;verticalAlign=middle;whiteSpace=wrap;rounded=0;" parent="1" vertex="1">
                    <mxGeometry x="795" y="255.5" width="60" height="30" as="geometry"/>
                </mxCell>
                <mxCell id="70" value="date_history" style="text;html=1;align=center;verticalAlign=middle;whiteSpace=wrap;rounded=0;" parent="1" vertex="1">
                    <mxGeometry x="795" y="280.5" width="60" height="44" as="geometry"/>
                </mxCell>
                <mxCell id="71" value="user_id" style="text;html=1;align=center;verticalAlign=middle;whiteSpace=wrap;rounded=0;fillColor=#6a00ff;fontColor=#ffffff;strokeColor=#3700CC;" parent="1" vertex="1">
                    <mxGeometry x="795" y="181.5" width="60" height="30" as="geometry"/>
                </mxCell>
                <mxCell id="72" value="user_history" style="text;html=1;align=center;verticalAlign=middle;resizable=0;points=[];autosize=1;fontColor=light-dark(#000000,#000000);fontStyle=1;fontSize=15;" parent="1" vertex="1">
                    <mxGeometry x="770.5" y="99" width="110" height="33" as="geometry"/>
                </mxCell>
                <mxCell id="75" value="number_notify" style="text;html=1;align=center;verticalAlign=middle;whiteSpace=wrap;rounded=0;" parent="1" vertex="1">
                    <mxGeometry x="641" y="-93" width="60" height="30" as="geometry"/>
                </mxCell>
                <mxCell id="77" style="edgeStyle=none;html=1;exitX=0.5;exitY=0;exitDx=0;exitDy=0;strokeColor=light-dark(#000000,#000000);" parent="1" source="78" edge="1">
                    <mxGeometry relative="1" as="geometry">
                        <mxPoint x="1166" y="-264" as="targetPoint"/>
                    </mxGeometry>
                </mxCell>
                <mxCell id="78" value="" style="rounded=1;whiteSpace=wrap;html=1;shadow=1;glass=1;" parent="1" vertex="1">
                    <mxGeometry x="1078" y="-242" width="176" height="231" as="geometry"/>
                </mxCell>
                <mxCell id="80" value="bitcoin_invest" style="text;html=1;align=center;verticalAlign=middle;whiteSpace=wrap;rounded=0;" parent="1" vertex="1">
                    <mxGeometry x="1136" y="-140.5" width="60" height="30" as="geometry"/>
                </mxCell>
                <mxCell id="81" value="ethereum_invest" style="text;html=1;align=center;verticalAlign=middle;whiteSpace=wrap;rounded=0;" parent="1" vertex="1">
                    <mxGeometry x="1136.5" y="-115.5" width="60" height="44" as="geometry"/>
                </mxCell>
                <mxCell id="82" value="user_id" style="text;html=1;align=center;verticalAlign=middle;whiteSpace=wrap;rounded=0;fillColor=#6a00ff;fontColor=#ffffff;strokeColor=#3700CC;" parent="1" vertex="1">
                    <mxGeometry x="1136" y="-214.5" width="60" height="30" as="geometry"/>
                </mxCell>
                <mxCell id="83" value="invest" style="text;html=1;align=center;verticalAlign=middle;resizable=0;points=[];autosize=1;fontColor=light-dark(#000000,#000000);fontStyle=1;fontSize=17;" parent="1" vertex="1">
                    <mxGeometry x="1133.5" y="-319" width="66" height="33" as="geometry"/>
                </mxCell>
                <mxCell id="86" value="dolar_invest" style="text;html=1;align=center;verticalAlign=middle;whiteSpace=wrap;rounded=0;" parent="1" vertex="1">
                    <mxGeometry x="1136" y="-77" width="60" height="44" as="geometry"/>
                </mxCell>
                <mxCell id="100" value="" style="rounded=1;whiteSpace=wrap;html=1;shadow=1;glass=1;movable=1;resizable=1;rotatable=1;deletable=1;editable=1;locked=0;connectable=1;" parent="1" vertex="1">
                    <mxGeometry x="1276.5" y="565" width="176" height="315" as="geometry"/>
                </mxCell>
                <mxCell id="101" value="totaal_invest" style="text;html=1;align=center;verticalAlign=middle;whiteSpace=wrap;rounded=0;fillColor=none;strokeColor=none;noLabel=0;absoluteArcSize=0;fixDash=0;autosize=0;" parent="1" vertex="1">
                    <mxGeometry x="1334" y="671" width="60" height="30" as="geometry"/>
                </mxCell>
                <mxCell id="102" value="image_pig" style="text;html=1;align=center;verticalAlign=middle;whiteSpace=wrap;rounded=0;fillColor=none;strokeColor=none;noLabel=0;absoluteArcSize=0;fixDash=0;autosize=0;" parent="1" vertex="1">
                    <mxGeometry x="1334.5" y="748" width="60" height="30" as="geometry"/>
                </mxCell>
                <mxCell id="103" value="nome_pig" style="text;html=1;align=center;verticalAlign=middle;whiteSpace=wrap;rounded=0;fillColor=none;strokeColor=none;noLabel=0;absoluteArcSize=0;fixDash=0;autosize=0;" parent="1" vertex="1">
                    <mxGeometry x="1334.5" y="764" width="60" height="44" as="geometry"/>
                </mxCell>
                <mxCell id="104" value="user_id" style="text;html=1;align=center;verticalAlign=middle;whiteSpace=wrap;rounded=0;fillColor=#6a00ff;fontColor=#ffffff;strokeColor=#3700CC;" parent="1" vertex="1">
                    <mxGeometry x="1334" y="624.5" width="60" height="30" as="geometry"/>
                </mxCell>
                <mxCell id="105" value="meta_pig" style="text;html=1;align=center;verticalAlign=middle;whiteSpace=wrap;rounded=0;fillColor=none;strokeColor=none;noLabel=0;absoluteArcSize=0;fixDash=0;autosize=0;" parent="1" vertex="1">
                    <mxGeometry x="1334" y="690" width="60" height="44" as="geometry"/>
                </mxCell>
                <mxCell id="106" value="pig_id" style="text;html=1;align=center;verticalAlign=middle;whiteSpace=wrap;rounded=0;fillColor=#6a00ff;fontColor=#ffffff;strokeColor=#3700CC;" parent="1" vertex="1">
                    <mxGeometry x="1334" y="586" width="60" height="30" as="geometry"/>
                </mxCell>
                <mxCell id="107" value="pigs" style="text;html=1;align=center;verticalAlign=middle;resizable=0;points=[];autosize=1;fontColor=light-dark(#000000,#000000);fontStyle=1;fontSize=17;" parent="1" vertex="1">
                    <mxGeometry x="1337" y="525" width="55" height="33" as="geometry"/>
                </mxCell>
                <mxCell id="108" value="ganhos_total_pig" style="text;html=1;align=center;verticalAlign=middle;whiteSpace=wrap;rounded=0;fillColor=none;strokeColor=none;noLabel=0;absoluteArcSize=0;fixDash=0;autosize=0;" parent="1" vertex="1">
                    <mxGeometry x="1337" y="792" width="60" height="44" as="geometry"/>
                </mxCell>
                <mxCell id="109" value="total_bruto" style="text;html=1;align=center;verticalAlign=middle;whiteSpace=wrap;rounded=0;fillColor=none;strokeColor=none;noLabel=0;absoluteArcSize=0;fixDash=0;autosize=0;" parent="1" vertex="1">
                    <mxGeometry x="1334.5" y="723" width="60" height="30" as="geometry"/>
                </mxCell>
                <mxCell id="111" value="ultimos_ganhos_pig" style="text;html=1;align=center;verticalAlign=middle;whiteSpace=wrap;rounded=0;fillColor=none;strokeColor=none;noLabel=0;absoluteArcSize=0;fixDash=0;autosize=0;" parent="1" vertex="1">
                    <mxGeometry x="1334.5" y="825" width="60" height="44" as="geometry"/>
                </mxCell>
            </root>
        </mxGraphModel>
    </diagram>
</mxfile>